<?xml version="1.0" encoding="utf-8"?>
<!-- Generator: Adobe Illustrator 22.1.0, SVG Export Plug-In . SVG Version: 6.00 Build 0)  -->
<svg version="1.1" xmlns="http://www.w3.org/2000/svg" xmlns:xlink="http://www.w3.org/1999/xlink" x="0px" y="0px"
	 viewBox="0 0 158.9 61.4" style="enable-background:new 0 0 158.9 61.4;" xml:space="preserve">
<style type="text/css">
	.st0{opacity:0.37;fill:#C6C6C6;}
	.st1{fill:#002169;}
	.st2{fill:#A7A8A9;}
	.st3{fill:#052467;}
	.st4{fill:#FFFFFF;}
	.st5{fill:none;}
	.st6{fill:none;stroke:#A7A8A9;stroke-miterlimit:10;}
	.st7{fill:#C6C6C6;}
	.st8{fill:#666666;}
	.st9{fill:none;stroke:#002169;stroke-miterlimit:10;}
	.st10{fill:none;stroke:#FFFFFF;stroke-miterlimit:10;}
	.st11{fill:#4D4D4D;}
	.st12{fill:url(#SVGID_27_);}
	.st13{fill:#53565A;}
	.st14{fill:#7E7879;}
	.st15{fill:none;stroke:#1D1D1B;stroke-miterlimit:10;}
	.st16{opacity:0.64;fill:url(#SVGID_84_);}
</style>
<g id="Layer_2">
	<g>
		<g>
			<path class="st1" d="M0.1,5.3h12.8c4.7,0,7.5,0.5,10,1.7c6.3,3,10,9.2,10,17c0,6.7-2.2,12-6.5,15.6c-3.3,2.6-6.7,3.8-11.4,3.8
				h-15V5.3z M14,34.8c2.3,0,4.5-0.6,5.8-1.6c2.2-1.6,3.5-4.9,3.5-8.7c0-6.8-3.4-10.6-9.3-10.6H9.8v20.9H14z"/>
			<path class="st1" d="M62.7,34.4c-2.6,6.1-7.8,9.9-13.7,9.9c-8.6,0-15.2-6.6-15.2-15.2c0-8.4,6.6-15.3,14.8-15.3
				c8.6,0,15.1,6.7,15.1,15.6c0,0.9-0.1,1.4-0.2,2.3H42.1c0.4,3.2,2.9,5.4,6.2,5.4c2.2,0,3.4-0.6,5.2-2.3l0.4-0.4H62.7z M55.2,26
				c-0.6-2.9-3.2-5-6.4-5c-3.4,0-5.8,1.8-6.5,5H55.2z"/>
			<path class="st1" d="M65.1,0l8.6,5.3v38h-8.6V0z"/>
			<path class="st1" d="M75.6,5.9l8.6,4v33.4h-8.6V5.9z"/>
			<path class="st1" d="M86.4,14.8h8.1v3c1.7-2.9,3.6-4,7.1-4v8.6c-4.9,0.1-6.7,1.5-6.7,5.2v15.7h-8.5V14.8z"/>
			<path class="st1" d="M131.5,43.3h-8.1v-3.1c-1.4,2.7-4.2,4-8.8,4c-8.6,0-14.5-6.2-14.5-15.2s6-15.3,14.7-15.3c4.3,0,7,1.3,8.6,4
				v-3h8.1V43.3z M108.6,29c0,4.2,3.1,7.3,7.1,7.3c4.1,0,7.1-3.1,7.1-7.2c0-4.2-3-7.2-7.2-7.2C111.7,21.8,108.6,24.9,108.6,29z"/>
			<path class="st1" d="M158.9,14.8l-14.3,38h-9l4.5-11l-10.6-27.1h9.1l5.8,16.5l5.5-16.5H158.9z"/>
		</g>
		<g>
			<path class="st2" d="M12.5,54.5c0,0.3,0,0.5,0,0.6c0,3.6-2.7,6.3-6.3,6.3c-3.5,0-6.2-2.7-6.2-6.2c0-3.5,2.8-6.1,6.4-6.1
				c2.6,0,5.1,1.8,5.8,4.2H8.8c-0.5-1-1.4-1.5-2.6-1.5c-0.9,0-1.7,0.3-2.3,1C3.3,53.5,3,54.2,3,55.1c0,1,0.4,2,0.9,2.6
				c0.6,0.6,1.5,1,2.5,1c1.3,0,2.3-0.7,2.6-1.9H5.5v-2.4H12.5z"/>
			<path class="st2" d="M22,49.4h3.7c2,0,2.8,0.2,3.6,0.8c0.9,0.7,1.4,1.9,1.4,3.2c0,1.2-0.5,2.3-1.3,3c-0.5,0.4-0.9,0.6-1.6,0.7
				l3.2,4h-3.4l-2.7-3.8v3.8H22V49.4z M25.9,55.3c0.6,0,1-0.1,1.4-0.4c0.4-0.3,0.6-0.8,0.6-1.3c0-1.1-0.7-1.6-1.9-1.6h-1.1v3.3H25.9
				z"/>
			<path class="st2" d="M52.1,55.3c0,3.4-2.7,6.1-6.2,6.1c-3.6,0-6.2-2.6-6.2-6.2c0-3.4,2.7-6,6.2-6C49.4,49.2,52.1,51.9,52.1,55.3z
				 M42.7,55.3c0,2,1.4,3.5,3.2,3.5s3.2-1.5,3.2-3.5c0-1.9-1.4-3.4-3.2-3.4C44,51.8,42.7,53.3,42.7,55.3z"/>
			<path class="st2" d="M64.4,49.4v7.1c0,1.6,0.5,2.2,1.5,2.2c0.5,0,0.9-0.2,1.1-0.5c0.3-0.4,0.4-0.8,0.4-1.8v-7.1h3v7.1
				c0,1.7-0.3,2.7-1.2,3.6c-0.8,0.8-2,1.3-3.3,1.3c-1.4,0-2.5-0.4-3.4-1.3c-0.9-0.9-1.2-1.8-1.2-3.6v-7.1H64.4z"/>
			<path class="st2" d="M80.2,49.4h3.8c1.9,0,2.8,0.2,3.6,0.9c0.9,0.7,1.4,1.9,1.4,3.1c0,1.2-0.5,2.3-1.2,3.1c-0.8,0.7-1.8,1-3.4,1
				h-1.3v3.7h-2.9V49.4z M84.3,54.8c0.7,0,1.1-0.1,1.4-0.3c0.3-0.2,0.5-0.6,0.5-1.1c0-0.4-0.2-0.9-0.5-1.1c-0.3-0.2-0.7-0.3-1.4-0.3
				h-1.1v2.8H84.3z"/>
		</g>
	</g>
</g>
<g id="Layer_3">
</g>
</svg>
