<?xml version="1.0" encoding="utf-8"?>
<!-- Generator: Adobe Illustrator 22.1.0, SVG Export Plug-In . SVG Version: 6.00 Build 0)  -->
<svg version="1.1" xmlns="http://www.w3.org/2000/svg" xmlns:xlink="http://www.w3.org/1999/xlink" x="0px" y="0px"
	 viewBox="0 0 126.8 49" style="enable-background:new 0 0 126.8 49;" xml:space="preserve">
<style type="text/css">
	.st0{opacity:0.37;fill:#C6C6C6;}
	.st1{fill:#002169;}
	.st2{fill:#A7A8A9;}
	.st3{fill:#052467;}
	.st4{fill:#FFFFFF;}
	.st5{fill:none;}
	.st6{fill:none;stroke:#A7A8A9;stroke-miterlimit:10;}
	.st7{fill:#C6C6C6;}
	.st8{fill:#666666;}
	.st9{fill:none;stroke:#002169;stroke-miterlimit:10;}
	.st10{fill:none;stroke:#FFFFFF;stroke-miterlimit:10;}
	.st11{fill:url(#SVGID_27_);}
	.st12{fill:#53565A;}
	.st13{fill:#7E7879;}
	.st14{fill:none;stroke:#1D1D1B;stroke-miterlimit:10;}
	.st15{opacity:0.64;fill:url(#SVGID_84_);}
</style>
<g id="Layer_2">
	<g>
		<g>
			<g>
				<path class="st4" d="M0.1,4.2h10.2c3.8,0,6,0.4,8,1.3c5.1,2.4,8,7.4,8,13.6c0,5.4-1.7,9.6-5.2,12.4c-2.6,2.1-5.4,3-9.1,3h-12
					V4.2z M11.1,27.7c1.9,0,3.6-0.5,4.6-1.3c1.8-1.3,2.8-3.9,2.8-7c0-5.4-2.7-8.5-7.4-8.5H7.8v16.7H11.1z"/>
				<path class="st4" d="M50,27.5c-2.1,4.9-6.2,7.9-10.9,7.9C32.3,35.3,27,30,27,23.2C27,16.5,32.3,11,38.8,11c6.8,0,12,5.4,12,12.5
					c0,0.7,0,1.1-0.1,1.8H33.6c0.3,2.5,2.3,4.3,5,4.3c1.7,0,2.7-0.5,4.2-1.8l0.3-0.3H50z M44,20.8c-0.5-2.3-2.5-4-5.1-4
					c-2.7,0-4.6,1.4-5.2,4H44z"/>
				<path class="st4" d="M52,0l6.8,4.2v30.4H52V0z"/>
				<path class="st4" d="M60.3,4.7l6.8,3.2v26.6h-6.8V4.7z"/>
				<path class="st4" d="M68.9,11.8h6.5v2.4c1.3-2.3,2.9-3.2,5.7-3.2v6.8c-3.9,0.1-5.4,1.2-5.4,4.1v12.6h-6.8V11.8z"/>
				<path class="st4" d="M104.9,34.6h-6.5v-2.5c-1.1,2.2-3.4,3.2-7,3.2c-6.9,0-11.6-5-11.6-12.2S84.7,11,91.5,11
					c3.5,0,5.6,1,6.9,3.2v-2.4h6.5V34.6z M86.7,23.1c0,3.3,2.5,5.8,5.7,5.8c3.3,0,5.7-2.5,5.7-5.8c0-3.4-2.4-5.8-5.7-5.8
					C89.1,17.4,86.7,19.9,86.7,23.1z"/>
				<path class="st4" d="M126.8,11.8l-11.4,30.4h-7.2l3.6-8.7l-8.5-21.6h7.2l4.6,13.2l4.4-13.2H126.8z"/>
			</g>
			<g>
				<path class="st2" d="M10,43.5c0,0.2,0,0.4,0,0.5c0,2.8-2.2,5-5,5c-2.8,0-5-2.2-5-4.9c0-2.8,2.2-4.8,5.1-4.8
					c2.1,0,4.1,1.4,4.6,3.3H7c-0.4-0.8-1.2-1.2-2.1-1.2c-0.7,0-1.3,0.3-1.8,0.8c-0.5,0.5-0.7,1.1-0.7,1.8c0,0.8,0.3,1.6,0.7,2.1
					c0.5,0.5,1.2,0.8,2,0.8c1.1,0,1.8-0.6,2.1-1.5H4.4v-1.9H10z"/>
				<path class="st2" d="M17.5,39.4h3c1.6,0,2.3,0.2,2.9,0.7c0.7,0.6,1.2,1.5,1.2,2.6c0,1-0.4,1.8-1,2.4c-0.4,0.4-0.7,0.5-1.3,0.6
					l2.5,3.2H22l-2.2-3v3h-2.3V39.4z M20.7,44.1c0.5,0,0.8-0.1,1.1-0.3c0.3-0.2,0.5-0.6,0.5-1c0-0.8-0.5-1.3-1.5-1.3h-0.9v2.6H20.7z
					"/>
				<path class="st2" d="M41.6,44.1c0,2.7-2.2,4.9-4.9,4.9c-2.8,0-5-2.1-5-4.9c0-2.7,2.2-4.8,5-4.8C39.4,39.2,41.6,41.4,41.6,44.1z
					 M34,44.1c0,1.6,1.1,2.8,2.6,2.8c1.5,0,2.5-1.2,2.5-2.8c0-1.5-1.1-2.7-2.5-2.7C35.1,41.4,34,42.5,34,44.1z"/>
				<path class="st2" d="M51.4,39.4v5.7c0,1.2,0.4,1.8,1.2,1.8c0.4,0,0.7-0.1,0.9-0.4c0.2-0.3,0.3-0.6,0.3-1.4v-5.7h2.4v5.7
					c0,1.4-0.3,2.2-0.9,2.9c-0.7,0.7-1.6,1-2.7,1c-1.1,0-2-0.4-2.7-1c-0.7-0.7-0.9-1.4-0.9-2.9v-5.7H51.4z"/>
				<path class="st2" d="M64,39.4h3.1c1.5,0,2.3,0.2,2.9,0.7c0.7,0.6,1.1,1.5,1.1,2.5c0,1-0.4,1.9-1,2.4c-0.6,0.6-1.4,0.8-2.7,0.8
					h-1v2.9H64V39.4z M67.3,43.7c0.6,0,0.9-0.1,1.1-0.3c0.2-0.2,0.4-0.5,0.4-0.9c0-0.3-0.2-0.7-0.4-0.9c-0.2-0.2-0.6-0.2-1.2-0.2
					h-0.9v2.2H67.3z"/>
			</g>
		</g>
	</g>
</g>
<g id="Layer_3">
</g>
</svg>
